<?xml version="1.0" standalone="no"?>
<!DOCTYPE svg PUBLIC "-//W3C//DTD SVG 20010904//EN"
 "http://www.w3.org/TR/2001/REC-SVG-20010904/DTD/svg10.dtd">
<svg version="1.0" xmlns="http://www.w3.org/2000/svg"
 width="180.000000pt" height="150.000000pt" viewBox="0 0 500.000000 500.000000"
 preserveAspectRatio="xMidYMid meet">

<g transform="translate(0.000000,500.000000) scale(0.100000,-0.100000)"
fill="#000000" stroke="none">
<path d="M500 2690 l0 -490 2000 0 2000 0 0 490 0 490 -2000 0 -2000 0 0 -490z
m1222 205 c87 -42 83 -160 -6 -183 -48 -13 -44 -32 6 -32 24 0 49 -5 56 -12 7
-7 12 -43 12 -90 l0 -78 -50 0 -50 0 0 70 0 70 -75 0 -75 0 0 -70 0 -70 -50 0
-50 0 0 211 0 212 123 -5 c87 -4 133 -11 159 -23z m458 -20 l0 -45 -100 0
-100 0 0 -40 0 -40 85 0 85 0 0 -45 0 -45 -85 0 -85 0 0 -40 0 -40 100 0 100
0 0 -40 0 -40 -150 0 -150 0 0 210 0 210 150 0 150 0 0 -45z m419 -166 l70
-210 -52 3 -51 3 -15 48 -15 47 -86 0 -86 0 -15 -47 -15 -48 -51 -3 -52 -3 63
189 c35 103 69 198 75 210 10 20 20 22 85 22 l74 0 71 -211z m422 199 c68 -23
100 -58 124 -135 6 -22 4 -23 -44 -23 -41 0 -51 4 -56 20 -19 60 -128 82 -181
37 -22 -19 -28 -34 -32 -80 -3 -34 1 -69 8 -87 31 -75 157 -81 198 -10 15 27
22 30 65 30 46 0 48 -1 41 -22 -21 -70 -70 -120 -132 -138 -108 -30 -211 12
-257 104 -60 120 -5 271 112 306 41 12 115 12 154 -2z m559 -33 l0 -45 -70 0
-70 0 0 -165 0 -165 -45 0 -45 0 0 165 0 165 -70 0 -70 0 0 45 0 45 185 0 185
0 0 -45z"/>
<path d="M1540 2781 l0 -51 59 0 c62 0 91 15 91 48 0 36 -18 46 -84 50 l-66 4
0 -51z"/>
<path d="M2421 2768 c-12 -34 -21 -66 -21 -70 0 -4 23 -8 50 -8 28 0 50 4 50
8 0 20 -43 132 -50 132 -4 0 -18 -28 -29 -62z"/>
<path d="M1560 2025 c0 -9 9 -15 25 -15 24 0 25 -2 25 -65 0 -51 3 -65 15 -65
12 0 15 14 15 65 0 63 1 65 25 65 16 0 25 6 25 15 0 12 -14 15 -65 15 -51 0
-65 -3 -65 -15z"/>
<path d="M1740 1960 l0 -80 60 0 c33 0 60 4 60 10 0 6 -20 10 -45 10 -41 0
-45 2 -45 25 0 22 4 25 35 25 19 0 35 5 35 10 0 6 -16 10 -35 10 -28 0 -35 4
-35 20 0 17 7 20 40 20 29 0 40 4 40 15 0 12 -13 15 -55 15 l-55 0 0 -80z"/>
<path d="M1936 2019 c-35 -27 -36 -86 -3 -117 27 -25 88 -30 106 -9 16 20 3
27 -26 16 -36 -14 -73 12 -73 50 0 39 22 55 65 48 40 -6 55 7 26 22 -31 17
-66 13 -95 -10z"/>
<path d="M2110 1961 c0 -65 3 -81 15 -81 10 0 15 11 15 35 0 34 1 35 40 35 39
0 40 -1 40 -35 0 -24 5 -35 15 -35 12 0 15 16 15 80 0 64 -3 80 -15 80 -10 0
-15 -11 -15 -35 0 -34 -1 -35 -39 -35 -37 0 -40 2 -43 32 -2 17 -9 33 -15 36
-10 3 -13 -17 -13 -77z"/>
<path d="M2310 1960 c0 -64 3 -80 15 -80 11 0 15 13 15 53 l1 52 47 -53 c26
-29 50 -52 55 -52 11 0 9 160 -3 160 -5 0 -10 -22 -10 -50 0 -27 -3 -50 -7
-50 -5 1 -25 23 -46 50 -56 72 -67 67 -67 -30z"/>
<path d="M2553 2028 c-33 -16 -48 -61 -33 -98 15 -36 37 -50 78 -50 75 0 113
94 56 139 -29 23 -66 26 -101 9z m85 -30 c21 -21 14 -66 -12 -83 -53 -35 -115
34 -70 79 18 19 65 21 82 4z"/>
<path d="M2740 1960 l0 -80 55 0 c30 0 55 5 55 10 0 6 -18 10 -40 10 l-40 0 0
70 c0 56 -3 70 -15 70 -12 0 -15 -16 -15 -80z"/>
<path d="M2915 2015 c-17 -16 -25 -35 -25 -59 0 -90 145 -105 165 -17 18 81
-82 135 -140 76z m105 -26 c29 -52 -26 -107 -75 -75 -27 18 -34 63 -13 84 20
20 76 15 88 -9z"/>
<path d="M3143 2028 c-33 -16 -48 -61 -33 -98 7 -17 21 -35 31 -40 20 -11 69
-13 93 -4 22 8 22 74 1 74 -9 0 -15 -9 -15 -24 0 -13 -7 -26 -15 -30 -23 -8
-62 10 -70 33 -15 49 23 81 79 67 31 -8 43 9 17 23 -24 14 -59 13 -88 -1z"/>
<path d="M3305 2013 c10 -16 24 -37 32 -48 7 -11 13 -34 13 -52 0 -23 5 -33
15 -33 10 0 15 10 15 26 0 15 14 49 30 76 34 55 35 58 17 58 -8 0 -22 -16 -33
-35 -10 -19 -22 -35 -25 -35 -4 0 -16 16 -28 35 -11 19 -28 35 -37 35 -15 0
-15 -2 1 -27z"/>
</g>
</svg>
